<svg width="1840" height="1380" viewBox="0 0 1840 1380" fill="none" xmlns="http://www.w3.org/2000/svg">
<path d="M271.766 883.18L272.623 882.178L275.563 883.254L278.912 882.933L278.947 881.427L281.673 879.581L282.366 876.728L281.451 871.4L279.492 870.71L278.517 871.009L277.06 869.774L276.559 870.318L275.289 867.49L276.656 865.225L277.937 860.103L276.352 858.234L277.954 856.091L277.321 854.033L279.768 854.179L284.273 849.846L285.573 849.193L285.404 847.418L286.696 843.506L287.782 843.266L288.064 840.518L287.651 838.012L288.143 836.177L288.934 836.105L289.08 834.05L288.352 833.149L292.672 829.604L293.166 827.087L294.361 826.261L297.427 825.762L298.954 824.544L301.215 824.188L301.474 823.519L305.038 821.747L305.259 819.934L304.276 817.698L302.676 816.668L299.547 812.269L297.988 811.699L298.65 809.63L297.152 800.275L294.771 797.416L294.407 794.727L292.851 792.256L294.039 786.915L295.464 783.594L294.397 782.547L297.283 781.488L297.804 778.859L297.99 772.141L297.728 769.623L296.725 767.639L296.658 765.425L297.652 764.256L298.4 760.495L297.58 758.889L298.229 757.537L297.603 756.236L298.339 754.446L298.161 752.17L299.054 750.222L300.322 749.563L299.333 748.19L298.585 744.357L299.383 742.883L299.119 739.792L302.371 739.263L303.67 738.421L304.174 739.052L305.807 738.427L307.856 738.869L307.918 739.831L310.96 739.708L312.512 740.126L314.185 743.147L313.743 744.123L315.926 746.483L318.915 746.645L323.114 740.514L323.825 740.082L325.562 731.692L327.234 721.696L330.307 705.709L354.274 710.223L380.917 715.021L418.552 721.369L430.235 723.221L449.521 726.169L450.205 726.538L478.549 730.758L498.116 733.484L489.498 795.873L488.168 804.596L488.139 805.719L483.429 839.816L480.21 862.197L479.598 867.554L478.897 871.698L464.439 976.345L456.133 975.112L430.027 971.377L413.416 968.909L391.12 965.417L347.683 940.287L322.224 925.627L310.09 918.265L266.566 892.056L267.681 889.781L267.172 889.036L267.736 886.878L268.866 886.499L271.766 883.18Z" fill="#929292"/>
<path d="M371.499 493.257L378.274 494.778L407.674 499.714L429.198 503.422L429.727 503.702L451.735 507.287L465.003 509.323L462.139 527.988L460.742 536.012L458.15 552.248L468.739 553.995L483.904 556.36L489.855 557.14L506.188 559.489L521.739 561.603L519.009 581.362L518.66 583.042L509.192 651.55L507.855 659.489L505.216 678.57L505.152 683.414L501.391 710.654L501.088 711.966L498.116 733.484L478.549 730.758L450.205 726.538L449.521 726.169L430.235 723.221L418.552 721.369L380.917 715.021L354.274 710.223L330.307 705.709L336.497 673.51L336.693 673.13L338.488 663.155L339.823 656.847L341.802 645.92L344.156 634.308L355.834 573.551L356.995 568.125L361.407 545.169L363.388 535.471L371.499 493.257Z" fill="#AFAFAF"/>
<path d="M695.748 407.39L695.409 412.665L689.679 480.103L689.765 480.408L681.362 579.358L656.414 577.211L655.603 577.21L627.806 574.522L612.088 572.829L604.537 571.818L567.059 567.445L549.419 565.299L521.739 561.603L506.188 559.489L489.855 557.14L483.904 556.36L468.739 553.995L458.15 552.248L460.742 536.012L462.139 527.988L465.003 509.323L468.962 484.526L470.028 478.568L476.401 438.643L476.443 437.674L479.456 418.8L480.906 409.023L481.831 403.925L482.635 397.499L484.172 387.186L485.189 381.511L493.265 382.714L495.563 383.523L504.721 384.861L505.95 384.75L510.766 385.666L513.502 385.777L522.86 387.236L543.795 390.032L544.945 390.452L568.792 393.649L602.935 397.875L604.431 398.199L620 400.055L639.264 402.177L641.781 402.18L656.078 403.631L683.278 406.266L695.748 407.39Z" fill="#777777"/>
<path d="M372.137 186.542L395.578 191.528L418.896 196.087L437.972 199.936L457.121 203.398L492.22 209.584L513.548 213.066L537.041 216.627L570.29 221.412L584.601 223.342L614.27 227.096L637.366 229.753L651.92 231.384L681.877 234.415L693.502 235.501L710.542 236.965L708.348 262.816L708.398 263.444L699.623 366.871L699.023 375.218L696.303 407.289L695.748 407.39L683.278 406.266L656.078 403.631L641.781 402.18L639.264 402.177L620 400.055L604.431 398.199L602.935 397.875L568.792 393.649L544.945 390.452L543.795 390.032L522.86 387.236L513.502 385.777L510.766 385.666L505.95 384.75L504.721 384.861L495.563 383.523L493.265 382.714L485.189 381.511L484.172 387.186L482.635 397.499L481.831 403.925L479.691 402.721L479.328 400.827L477.079 398.254L477.549 396.719L475.218 391.958L473.598 390.346L472.425 392.102L470.249 391.858L470.591 393.15L468.274 396.442L469.512 399.045L466.208 397.525L465.138 397.948L462.622 397.042L462.182 397.681L458.694 398.597L457.675 396.063L455.249 395.953L453.689 396.626L452.689 395.969L450.233 396.675L449.506 395.725L447.943 395.757L446.867 394.258L445.183 393.704L443.99 394.811L443.018 394.643L442.416 396.828L441.266 398.318L438.913 396.48L437.921 397.057L436.885 395.974L433.333 395.272L431.639 394.145L429.654 394.656L427.565 396.988L427.868 399.035L426.751 399.662L425.849 397.846L424.06 396.622L422.702 394.873L422.404 392.826L423.167 391.686L421.437 388.328L422.724 386.757L422.516 384.84L421.301 380.523L418.249 377.786L415.163 378.872L415.002 377.338L412.354 374.856L411.831 371.112L413.418 370.919L414.003 368.96L413.986 366.665L412.219 364.871L412.608 363.966L410.894 363.083L410.643 360.293L408.581 357.163L408.713 355.873L407.592 353.633L408.284 351.134L407.563 350.284L407.317 348.096L408.16 347.129L408.369 345.441L406.353 345.059L407.748 341.757L406.331 340.549L405.045 340.379L405.437 339.477L404.682 337.681L403.275 336.436L402.232 336.724L402.159 338.25L400.327 339.213L397.741 341.795L395.545 342.347L394.251 341.644L393.524 343.683L390.681 344.708L390.406 343.3L389.077 342.213L388.126 339.77L385.478 339.248L386.281 337.413L385.692 335.943L387.86 334.981L388.308 333.265L386.83 330.191L389.365 327.348L392.009 327.83L393.059 326.383L392.072 324.161L393.052 322.514L391.244 321.144L391.208 319.109L392.566 317.199L391.016 315.655L391.575 313.926L393.619 314.065L394.075 311.19L393.659 309.983L395.192 309.384L396.119 305.215L397.939 303.134L397.696 300.499L398.97 300.636L400.882 296.4L400.978 294.246L400.215 293.722L397.343 294.02L396.777 294.696L394.591 293.703L392.576 293.491L392.022 291.919L392.926 290.637L392.412 289.41L391.02 288.796L390.389 289.795L388.677 290.24L388.175 289.502L389.196 287.644L386.083 284.845L384.85 282.385L385.782 279.911L384.146 277.332L382.792 277.095L382.61 274.809L381.247 271.458L379.888 269.157L378.745 268.435L378.502 266.999L377.419 266.514L377.906 265.19L377.282 263.525L374.883 262.655L371.924 260.354L371.608 258.264L367.433 254.128L366.288 253.962L367.792 252.93L370.111 253.117L370.584 252.392L368.995 251.797L368.912 249.644L367.822 249.227L368.284 248.051L369.857 247.183L369.044 244.952L369.724 242.736L368.576 241.596L368.217 239.76L367.354 239.803L367.205 236.477L365.835 235.4L363.023 229.11L365.058 219.109L365.994 215.234L372.137 186.542Z" fill="#929292"/>
<path d="M187.29 451.763L211.533 457.987L227.312 461.951L230.213 462.54L260.477 469.521L278.904 473.65L299.301 478.354L331.911 485.262L340.716 487.062L347.793 488.225L354.198 489.843L358.231 490.563L371.499 493.257L363.388 535.471L361.407 545.169L356.995 568.125L355.834 573.551L344.156 634.308L341.802 645.92L339.823 656.847L338.488 663.155L336.693 673.13L336.498 673.51L327.234 721.696L325.562 731.692L323.825 740.082L323.114 740.514L318.915 746.645L315.926 746.483L313.743 744.123L314.185 743.147L312.512 740.126L310.96 739.708L307.918 739.831L307.856 738.87L305.807 738.427L304.174 739.052L303.67 738.421L302.371 739.263L299.119 739.792L299.383 742.883L298.585 744.357L299.333 748.19L300.322 749.563L299.054 750.222L298.161 752.17L298.339 754.446L297.603 756.236L298.229 757.538L297.58 758.889L298.4 760.495L297.652 764.256L296.659 765.425L296.725 767.639L297.728 769.623L297.99 772.141L297.804 778.859L297.283 781.488L294.397 782.547L295.464 783.594L294.039 786.915L279.662 765.338L272.892 755.05L250.438 721.405L221.036 677.117L209.316 659.339L203.596 650.875L192.189 633.709L183.253 620.107L177.546 611.716L167.369 596.267L157.141 580.975L154.867 577.427L157.086 567.881L158.336 563.51L162.589 547.028L162.824 546.589L166.593 532.447L173.623 505.197L173.827 503.943L187.29 451.763Z" fill="#777777"/>
<path d="M319.935 306.376L319.533 302.775L318.89 302.216L321.415 299.271L320.485 297.553L320.992 295.29L320.594 293.163L319.125 289.965L320.241 288.406L330.299 243.715L330.615 241.832L336.26 216.753L338.757 206.598L342.292 190.89L344.713 180.596L361.819 184.349L372.137 186.542L365.994 215.234L365.058 219.109L363.023 229.11L365.835 235.4L367.205 236.477L367.354 239.802L368.217 239.76L368.576 241.596L369.724 242.736L369.044 244.952L369.857 247.183L368.284 248.051L367.822 249.227L368.912 249.644L368.995 251.797L370.584 252.392L370.111 253.117L367.792 252.93L366.288 253.962L367.433 254.128L371.608 258.264L371.924 260.353L374.883 262.655L377.282 263.525L377.906 265.19L377.419 266.513L378.502 266.999L378.745 268.435L379.888 269.157L381.247 271.458L382.61 274.809L382.792 277.095L384.146 277.332L385.782 279.911L384.85 282.385L386.083 284.845L389.196 287.644L388.175 289.502L388.677 290.24L390.389 289.794L391.02 288.796L392.412 289.41L392.926 290.637L392.022 291.919L392.576 293.491L394.591 293.703L396.777 294.696L397.343 294.02L400.215 293.722L400.978 294.246L400.882 296.4L398.97 300.636L397.696 300.499L397.939 303.134L396.119 305.215L395.192 309.384L393.659 309.983L394.075 311.19L393.619 314.065L391.575 313.926L391.016 315.655L392.566 317.199L391.208 319.109L391.244 321.144L393.052 322.514L392.072 324.161L393.059 326.383L392.009 327.83L389.365 327.348L386.83 330.191L388.308 333.265L387.86 334.981L385.692 335.943L386.281 337.413L385.478 339.248L388.126 339.77L389.077 342.213L390.406 343.3L390.681 344.708L393.524 343.683L394.251 341.644L395.545 342.347L397.741 341.795L400.327 339.213L402.159 338.25L402.232 336.724L403.275 336.436L404.682 337.681L405.437 339.477L405.045 340.379L406.331 340.549L407.748 341.757L406.352 345.059L408.369 345.441L408.16 347.129L407.317 348.096L407.563 350.284L408.284 351.134L407.592 353.632L408.713 355.873L408.581 357.163L410.643 360.293L410.894 363.083L412.608 363.966L412.219 364.871L413.986 366.665L414.003 368.96L413.418 370.919L411.831 371.112L412.354 374.856L415.002 377.338L415.163 378.872L418.249 377.786L421.301 380.523L422.516 384.84L422.724 386.757L421.437 388.328L423.167 391.686L422.404 392.826L422.702 394.873L424.06 396.622L425.849 397.846L426.751 399.662L427.868 399.035L427.565 396.988L429.654 394.656L431.639 394.145L433.333 395.272L436.885 395.974L437.921 397.057L438.913 396.48L441.266 398.318L442.416 396.828L443.018 394.643L443.99 394.811L445.183 393.704L446.867 394.258L447.943 395.757L449.506 395.725L450.233 396.675L452.689 395.968L453.689 396.626L455.249 395.953L457.675 396.063L458.694 398.597L462.182 397.681L462.622 397.042L465.138 397.948L466.208 397.525L469.512 399.045L468.274 396.442L470.591 393.15L470.249 391.858L472.425 392.102L473.598 390.346L475.218 391.958L477.549 396.719L477.079 398.254L479.328 400.827L479.691 402.721L481.831 403.925L480.906 409.023L479.456 418.8L476.443 437.674L476.4 438.643L470.028 478.568L468.962 484.526L465.003 509.323L451.735 507.287L429.727 503.702L429.198 503.422L407.674 499.714L378.274 494.778L371.499 493.257L358.231 490.563L354.198 489.843L347.793 488.225L340.716 487.062L331.911 485.262L299.301 478.354L278.904 473.65L296.045 397.439L296.741 395.355L298.018 395.225L298.456 393.273L300.408 390.636L300.863 389.106L299.937 387.684L300.17 386.142L301.599 385.818L303.177 383.818L303.32 382.674L301.522 381.627L301.736 379.664L299.49 379.615L298.252 377.097L296.008 377.539L294.9 375.959L296.216 374.132L295.174 371.278L296.326 370.173L296.545 367.719L298.863 366.424L300.471 364.285L302.115 360.979L304.365 357.961L308.173 356.959L308.342 356.202L310.872 353.888L312.377 351.649L312.099 349.391L312.828 347.623L314.668 346.368L315.729 344.598L317.429 343.462L319.097 339.444L320.457 337.816L320.637 336.495L324.367 331.648L325.606 331.051L326.147 329.092L329.531 325.754L329.219 323.647L328.237 321.582L328.656 319.673L327.354 317.575L325.374 317.062L324.697 315.138L322.767 314.899L321.688 311.827L320.752 310.599L319.935 306.376Z" fill="#D8D8D8"/>
<path d="M143.275 821.186L145.217 821.847L148.233 824.6L150.652 826.022L150.559 826.955L152.022 829.635L151.028 831.04L149.626 829.749L146.452 828.719L146.011 827.275L146.655 824.603L144.31 823.425L143.275 821.186ZM138.591 839.964L139.75 840.091L141.477 844.978L145.354 850.874L144.136 850.429L142.568 850.892L140.822 848.792L139.823 845.801L139.113 841.083L138.591 839.964ZM127.656 816.787L128.71 816.779L128.469 818.289L127.167 817.699L127.656 816.787ZM120.451 791.008L121.281 791.868L122.76 791.703L122.489 792.785L120.361 792.404L119.445 791.368L120.451 791.008ZM107.443 821.185L109.245 821.372L111.41 823.26L112.122 824.626L110.371 824.76L108.078 823.376L107.443 821.185ZM104.256 784.739L106.401 785.559L107.794 786.76L109.683 787.051L111.622 789.195L113.921 789.933L115.138 788.745L117.413 790.088L115.669 791.296L112.125 790.819L109.75 791.404L104.808 789.219L105.249 786.99L104.256 784.739ZM92.2668 785.014L95.0422 785.43L96.3433 784.961L97.8644 785.663L99.6373 785.392L99.1907 787.119L101.281 788.158L100.959 789.918L95.4154 790.558L93.7945 788.716L92.2668 785.014ZM85.7922 781.704L87.9147 781.608L88.9145 780.794L89.3203 782.246L90.6702 783.598L88.0374 783.14L85.7922 781.704ZM58.7891 415.397L75.6232 420.648L76.668 420.728L85.0531 423.261L91.2893 424.635L94.2621 425.816L106.846 429.39L110.943 430.373L121.326 433.364L126.203 434.93L143.005 439.9L155.48 443.447L177.141 449.202L187.29 451.763L173.827 503.943L173.623 505.197L166.593 532.447L162.824 546.589L162.589 547.028L158.336 563.51L157.086 567.881L154.867 577.427L157.141 580.975L167.369 596.267L177.546 611.716L183.253 620.107L192.189 633.709L203.596 650.875L209.316 659.339L221.036 677.117L250.438 721.405L272.892 755.05L279.662 765.338L294.039 786.915L292.851 792.256L294.407 794.727L294.771 797.416L297.152 800.275L298.65 809.63L297.988 811.699L299.547 812.269L302.676 816.668L304.277 817.698L305.259 819.934L305.038 821.747L301.474 823.519L301.215 824.188L298.954 824.544L297.427 825.762L294.361 826.261L293.166 827.087L292.672 829.604L288.352 833.149L289.08 834.05L288.934 836.105L288.143 836.177L287.651 838.012L288.064 840.518L287.782 843.266L286.696 843.506L285.404 847.418L285.573 849.193L284.273 849.846L279.768 854.179L277.321 854.033L277.954 856.091L276.352 858.234L277.938 860.103L276.656 865.225L275.289 867.49L276.559 870.318L277.06 869.774L278.517 871.009L279.492 870.711L281.451 871.4L282.366 876.728L281.673 879.581L278.947 881.427L278.912 882.933L275.563 883.254L272.623 882.178L271.766 883.18L185.507 872.987L185.931 869.354L185.306 866.854L184.464 865.902L182.513 866.334L182.679 863.86L183.39 861.318L182.723 859.606L184.355 857.655L184.553 851.569L183.974 846.6L183.295 844.388L179.905 836.255L177.299 833.328L176.481 831.194L174.924 829.422L173.788 829.234L172.226 825.246L169.496 822.356L167.885 821.406L165.889 818.76L163.542 814.845L160.905 812.73L160.253 814.37L157.454 814.582L155.346 813.544L154.324 812.344L152.52 811.681L152.355 810.189L153.764 809.228L154.26 807.703L153.539 803.095L152.739 800.455L151.079 798.142L146.775 797.06L143.995 796.689L141.706 797.508L140.317 795.713L137.012 794.288L132.986 791.034L131.528 790.596L129.054 787.949L128.237 782.341L127.101 781.674L125.497 779.24L124.979 779.225L123.12 776.264L120.777 774.714L120.226 773.807L116.349 772.67L114.172 773.037L112.201 771.574L109.42 771.245L105.456 767.921L102.648 767.195L100.957 766.18L95.5232 765.033L89.4607 764.289L89.6324 763.141L88.674 760.35L87.0106 758.756L85.5115 758.513L85.0863 757.169L88.03 752.445L87.2656 749.933L89.3707 745.911L87.8251 743.422L90.0127 739.575L91.4691 734.571L89.8298 731.979L88.2066 731.277L87.6432 731.936L84.9129 729.088L84.0487 727.007L86.5153 722.619L86.756 720.757L85.9438 718.496L82.8335 717.121L80.5803 712.58L79.4045 708.365L76.7729 706.686L75.3834 703.76L75.5794 700.688L74.1286 698.477L73.6563 696.919L72.3296 695.204L72.5903 691.452L72.3398 690.031L70.244 688.334L69.4896 684.108L67.4525 679.911L64.1736 676.525L63.3193 674.547L63.1729 671.412L63.7124 669.938L63.4243 665.951L64.5843 662.717L63.4459 661.779L65.3698 659.456L67.1135 661.413L68.4763 660.633L69.9123 658.674L72.2639 653.876L71.2824 647.84L70.303 645.903L69.2387 645.18L67.9 645.888L63.5739 644.595L60.9758 641.229L59.4329 636.842L57.9764 635.731L58.0582 634.553L56.6814 631.837L56.8475 629.482L58.7498 625.026L58.2603 621.438L58.5594 619.509L57.3051 618.607L56.945 617.225L57.4853 614.899L58.3439 614.099L59.3659 611.407L60.0438 606.408L61.9546 605.869L63.8922 606.112L64.3431 607.171L64.2575 610.556L63.1202 610.581L63.3066 614.779L62.7985 615.681L65.7065 617.398L68.0398 621.156L69.0229 621.24L70.0186 623.96L71.4489 624.246L71.1525 622.614L69.9453 621.539L69.6602 618.09L69.9494 613.952L68.0564 611.325L68.2914 609.61L66.0021 607.953L67.8 605.598L67.6811 602.93L65.933 602.471L65.0068 599.572L65.8408 600.159L67.148 599.524L67.5562 598.09L69.7341 598.787L71.2878 597.718L70.8539 594.844L68.2991 592.413L66.4912 593.059L64.8128 592.812L64.5621 594.562L63.5126 596.044L64.7249 598.368L63.0803 598.866L62.1662 600.31L63.7931 602.945L62.8387 603.215L61.8615 601.812L61.9448 604.587L60.0417 604.663L59.389 603.003L57.0059 599.952L55.3772 599.948L53.4095 596.781L52.8031 594.549L51.1821 592.798L49.4178 591.974L46.7642 592.481L49.7054 588.41L50.5518 586.793L50.1293 583.099L51.1438 582.619L50.034 579.578L48.6646 579.566L49.251 577.136L48.4101 572.774L46.6522 570.277L45.2477 569.125L43.4033 566.094L41.0371 558.553L39.7469 557.041L39.2704 555.305L36.6968 551.037L35.2068 546.078L37.6337 543.772L37.9696 542.24L37.7304 537.267L37.2376 532.334L37.574 528.35L38.977 524.922L41.8612 520.655L41.8556 518.631L42.5533 516.313L41.9663 512.558L42.6783 508.571L41.2696 506.745L41.1895 504.581L38.7057 498.652L37.9872 498.2L38.4534 496.669L38.0253 494.865L35.9145 492.975L32.095 485.923L33.23 483.819L33.5508 481.191L32.9156 478.113L34.9891 474.935L37.7351 471.535L45.2754 463.53L47.5234 460.52L49.5875 456.521L48.6654 454.8L49.6087 451.315L50.071 451.379L52.3558 448.225L56.3169 439.945L57.1326 435.296L56.878 430.243L57.0454 426.563L56.0191 426.405L54.7509 423.917L56.6468 421.621L58.3874 417.878L58.7891 415.397Z" fill="#D8D8D8"/>
<path d="M131.406 245.561L133.661 245.848L134.521 247.832L133.842 249.743L135.146 251.743L137.701 252.537L141.515 251.702L142.91 252.266L147.743 258.243L147.836 260.61L148.858 264.015L148.376 266.062L148.565 268.112L147.569 270.395L147.7 273.811L146.866 275.144L146.664 277.005L149.531 279.905L153.946 282.516L154.895 283.516L156.801 283.523L157.828 285.042L159.648 285.751L162.429 285.043L164.888 285.469L171.323 284.095L173.015 282.844L174.73 282.71L176.762 283.849L179.891 284.256L183.053 284.134L184.733 285.743L186.412 286.548L188.419 286.561L191.566 288.947L191.777 291.871L193.274 292.124L195.733 290.879L199.311 291.69L200.512 292.623L201.982 291.718L207.359 291.206L209.252 290.373L211.352 291.273L213.06 293.668L215.408 294.057L219.194 294.057L221.325 294.423L222.861 293.222L226.027 293.015L229.472 292.153L234.51 292.419L238.454 293.044L240.325 291.352L241.991 290.9L244.291 292.317L251.306 292.596L252.952 293.538L254.985 293.816L258.274 293.036L259.738 292.031L276.732 296.13L302.806 302.376L319.935 306.376L320.752 310.599L321.689 311.827L322.767 314.899L324.697 315.138L325.374 317.062L327.354 317.575L328.656 319.673L328.237 321.582L329.219 323.647L329.531 325.754L326.147 329.092L325.606 331.051L324.367 331.648L320.638 336.495L320.457 337.816L319.097 339.444L317.429 343.462L315.729 344.598L314.668 346.368L312.828 347.623L312.099 349.391L312.377 351.649L310.872 353.889L308.342 356.202L308.173 356.959L304.365 357.961L302.115 360.979L300.471 364.285L298.863 366.424L296.545 367.719L296.326 370.173L295.174 371.278L296.216 374.132L294.9 375.959L296.008 377.539L298.252 377.097L299.49 379.615L301.736 379.664L301.522 381.627L303.32 382.674L303.177 383.818L301.599 385.818L300.17 386.142L299.937 387.684L300.863 389.106L300.408 390.636L298.456 393.273L298.019 395.225L296.741 395.355L296.045 397.439L278.904 473.65L260.477 469.521L230.213 462.54L227.312 461.951L211.533 457.987L187.29 451.763L177.141 449.202L155.48 443.447L143.005 439.9L126.203 434.93L121.326 433.364L110.943 430.373L106.846 429.39L94.262 425.816L91.2892 424.635L85.053 423.261L76.668 420.728L75.6232 420.648L58.789 415.397L57.1042 412.743L56.0745 410.289L56.0683 407.605L56.6457 406.5L56.0137 403.157L56.5804 402.088L56.512 399.618L57.675 395.079L60.6857 390.295L61.101 386.266L60.2237 382.615L59.0627 382.178L59.2311 377.451L61.8281 374.758L64.166 371.752L65.7165 369.008L66.2851 367.164L68.1215 364.625L69.843 361.313L69.6612 359.627L72.0524 358.307L73.3734 357.045L76.5125 352.889L80.2007 346.536L84.8537 336.994L88.0243 329.25L90.4748 322.721L90.3506 322.374L93.5259 315.72L94.1643 313.246L96.8788 306.959L97.8685 303.704L97.7655 302.166L99.5799 299.202L103.269 291.556L105.356 287.672L107.453 282.25L107.848 279.824L109.326 276.068L109.65 273.505L110.424 272.815L112.823 266.757L113.532 264.043L112.837 262.253L114.385 259.371L115.066 256.38L114.828 254.575L116.856 253.804L118.122 249.991L118.238 242.599L120.158 246.22L121.443 247.146L121.54 245.714L124.001 246.071L124.898 245.687L125.728 247.013L127.285 246.288L128.821 246.748L131.406 245.561Z" fill="#929292"/>
<path d="M173.588 208.884L175.052 205.298L176.786 203.048L177.472 205.227L176.686 207.215L178.283 208.89L176.193 209.324L175.426 210.097L173.486 210L173.588 208.884ZM184.082 159.159L184.487 157.755L186.055 159.764L184.107 160.192L184.082 159.159ZM184.258 151.118L184.992 150.799L186.402 155.572L185.045 153.586L184.258 151.118ZM182.021 157.006L183.107 156.218L183.82 158.209L181.999 158.938L182.021 157.006ZM177.014 171.341L179.212 168.59L181.201 166.92L181.957 165.046L183.657 165.117L184.161 165.984L183.667 167.705L185.174 169.582L185.211 170.581L183.526 170.821L181.985 169.807L181.593 170.798L179.955 171.619L178.49 171.463L178.545 172.392L180.937 172.701L181.609 174.492L181.559 177.674L181.019 178.052L181.009 181.855L182.081 181.134L182.256 178.635L183.224 179.026L184.25 181.488L185.719 182.402L185.477 185.91L184.095 187.723L182.823 186.866L182.486 183.496L180.134 183.774L180.637 182.776L179.182 180.683L180.421 177.5L180.488 175.388L178.653 175.011L178.658 173.871L177.014 171.341ZM177.981 146.561L179.025 147.018L181.842 149.849L180.97 149.901L179.002 148.569L177.981 146.561ZM174.299 149.628L176.244 149.209L176.104 150.422L174.299 149.628ZM177.415 137.166L178.889 137.597L178.986 138.727L177.294 138.307L177.415 137.166ZM169.4 152.792L170.401 151.945L172.388 152.491L172.288 153.565L173.433 155.155L175.023 155.962L173.949 153.024L178.71 150.307L179.875 150.722L182.943 153.815L180.556 155.024L180.975 157.654L180.147 159.771L178.803 160.332L178.498 162.868L176.391 162.713L175.413 160.526L174.398 160.687L172.329 159.664L169.895 156.591L170.083 153.755L169.4 152.792ZM169.624 148.749L171.298 149.622L172.521 152.035L169.979 149.729L169.624 148.749ZM344.713 180.596L342.292 190.89L338.758 206.598L336.26 216.753L330.615 241.832L330.299 243.715L320.242 288.406L319.125 289.965L320.594 293.163L320.992 295.29L320.485 297.553L321.415 299.271L318.89 302.216L319.533 302.775L319.935 306.376L302.806 302.376L276.732 296.13L259.738 292.031L258.274 293.036L254.985 293.816L252.952 293.538L251.306 292.596L244.291 292.317L241.991 290.9L240.325 291.352L238.454 293.044L234.51 292.418L229.472 292.153L226.027 293.015L222.861 293.222L221.325 294.422L219.194 294.057L215.408 294.057L213.06 293.668L211.352 291.273L209.252 290.373L207.359 291.206L201.982 291.718L200.512 292.623L199.311 291.69L195.733 290.879L193.274 292.124L191.778 291.871L191.566 288.947L188.419 286.561L186.412 286.548L184.733 285.743L183.053 284.134L179.891 284.256L176.762 283.849L174.73 282.71L173.015 282.844L171.323 284.095L164.888 285.469L162.429 285.043L159.648 285.751L157.828 285.042L156.802 283.523L154.895 283.516L153.946 282.516L149.531 279.905L146.664 277.005L146.866 275.144L147.7 273.811L147.569 270.395L148.565 268.112L148.376 266.062L148.858 264.015L147.836 260.61L147.743 258.243L142.91 252.266L141.515 251.702L137.701 252.537L135.146 251.743L133.842 249.743L134.521 247.832L133.661 245.848L131.406 245.561L128.021 244.203L128.074 242.912L126.91 242.332L125.559 243.118L124.336 242.365L121.85 243.577L121.004 243.052L119.647 239.795L118.711 239.203L117.493 240.641L116.364 240.682L118.466 235.974L119.895 231.639L121.254 225.709L121.924 228.257L120.651 231.715L119.594 236.663L121.329 237.189L121.825 235.917L121.233 234.199L121.884 232.051L122.712 233.724L125.022 231.233L124.325 226.565L125.89 225.425L128.994 224.327L127.661 222.504L126.764 223.269L124.915 222.786L125.076 223.719L123.494 223.085L121.935 220.92L122.423 218.956L122.702 214.046L123.597 214.012L123.648 216.025L125.093 215.274L131.027 214.653L130.302 213.398L127.109 211.548L127.387 209.905L124.81 208.583L123.744 209.18L123.589 212.589L121.745 212.833L122.456 211.59L124.263 204.232L124.742 197.624L123.191 194.078L124.518 186.545L124.847 183.693L125.096 177.559L124.088 175.868L124.284 173.82L123.138 172.584L122.975 171.346L121.399 169.745L121.401 165.529L121.705 161.753L122.381 159.933L121.9 157.638L123.719 155.984L126.109 151.444L124.732 149.255L125.267 148.579L126.956 149.067L130.312 152.212L132.787 155.424L133.766 155.764L135.823 157.886L136.546 157.649L140.022 160.813L139.71 161.483L142.748 163.973L148.194 166.038L150.418 166.21L153.111 168.429L154.205 168.03L155.012 168.958L157.472 169.423L158.334 170.899L162.437 172.036L166.356 170.482L165.81 171.236L167.569 173.353L167.805 175.137L169.674 175.035L171.318 175.705L170.692 176.741L171.885 177.85L171.382 179.953L172.442 180.032L173.282 178.256L172.232 176.656L172.64 175.251L174.122 174.615L176.317 174.87L176.302 176.046L174.459 176.807L174.949 178.853L175.709 178.844L176.396 177.215L177.536 177.011L177.321 180.757L175.721 180.676L176.394 182.47L176.404 185.444L177.493 186.557L176.438 187.207L174.856 186.674L174.63 188.21L172.561 188.984L170.508 192.699L169.011 192.609L171.266 188.953L170.838 188.181L167.902 191.181L166.959 192.928L164.133 194.777L158.429 200.098L155.89 203.902L157.183 203.975L159.368 205.112L160.855 204.515L163.147 204.533L163.839 203.283L158.767 204.172L157.332 202.72L163.884 196.003L167.757 194.305L170.955 194.163L171.999 191.681L174.345 189.576L178.141 188.077L178.22 184.405L180.018 186.444L179.537 193.43L177.329 192.797L177.226 194.292L178.19 195.101L177.223 196.959L177.735 197.83L177.2 199.697L175.408 200.632L174.923 201.942L176.272 202.939L174.78 204.342L173.295 207.236L173.487 208.092L171.9 209.812L172.112 211.743L169.795 214.094L167.857 210.557L169.64 207.406L167.598 208.42L166.35 210.466L168.54 214.268L167.365 214.54L166.978 216.263L165.6 216.858L164.449 214.768L163.498 210.48L165.089 209.528L165.813 207.408L165.361 206.322L164.84 208.119L163.046 209.776L163.017 212.519L161.919 214.034L163.377 213.923L163.817 216.572L166.328 218.138L167.818 217.154L168.153 215.99L169.632 215.804L171.242 213.25L172.789 211.67L172.89 210.554L174.832 213.323L176.096 212.73L176.053 211.344L179.124 210.922L179.626 209.158L179.4 206.882L178.703 206.265L179.66 205.203L179.054 203.505L179.062 200.801L181.659 200.093L179.827 197.361L182.259 194.93L182.57 191.553L184.536 190.361L186.629 186.427L189.081 186.172L189.669 183.714L188.499 182.508L187.061 178.828L187.902 176.254L187.395 174.247L185.941 173.679L185.999 174.608L184.62 175.279L184.945 177.92L186.24 180.192L185.99 181.452L184.246 177.721L183.089 177.237L182.975 174.998L183.95 172.349L185.984 172.019L187.357 173.247L188.774 172.055L188.229 170.189L185.896 167.812L185.087 165.756L185.579 164.415L182.366 164.746L182.005 163.387L182.857 161.922L181.395 162.146L182.088 160.864L184.751 160.567L185.889 161.464L186.288 163.44L188.245 163.734L188.338 159.659L190.083 159.93L190.92 158.878L189.502 155.967L189.67 153.51L190.903 152.194L189.92 150.774L188.18 150.502L186.68 151.627L187.126 153.426L185.651 151.482L187.017 149.712L186.282 148.551L185.252 148.786L185.811 146.479L184.288 143.989L185.585 143.568L185.457 142.165L184.339 141.234L186.461 139.799L204.58 144.972L214.088 147.859L228.456 151.618L242.579 155.493L261.402 160.429L278.173 164.706L294.582 168.743L312.302 173.021L344.713 180.596Z" fill="#AFAFAF"/>
</svg>
